<svg id="SvgjsSvg1013" width="288" height="288" xmlns="http://www.w3.org/2000/svg" version="1.1" xmlns:xlink="http://www.w3.org/1999/xlink" xmlns:svgjs="http://svgjs.com/svgjs"><defs id="SvgjsDefs1014"></defs><g id="SvgjsG1015" transform="matrix(0.9167,0,0,0.9167,11.99519360499383,11.995191936731345)"><svg xmlns="http://www.w3.org/2000/svg" viewBox="0 0 512 512" width="288" height="288"><path d="M455.84 248h0A199.1 199.1 0 00403 120.36h0q-5.41-5.89-11.32-11.32h0A199.1 199.1 0 00264 56.16h0q-4-.16-8-.16t-8 .16h0A199.1 199.1 0 00120.36 109h0q-5.89 5.42-11.32 11.32h0A199.1 199.1 0 0056.16 248h0q-.16 4-.16 8h0q0 4 .16 8A199.1 199.1 0 00109 391.64q5.42 5.89 11.32 11.32a199.71 199.71 0 0073.84 43.3L202 406.61l.08 0a159.23 159.23 0 0015.4 4.66l-4.73 24.14-7.14 36.48H306.43l-7.14-36.48-4.72-24.12A156.75 156.75 0 00310 406.68l.08 0 7.76 39.61A199.71 199.71 0 00391.64 403q5.89-5.41 11.32-11.32A199.1 199.1 0 00455.84 264q.17-4 .16-8h0Q456 252 455.84 248zM206.14 391.35a144.62 144.62 0 01-46.47-27.7l24.45-24.45a110 110 0 0042.94 22.93l-6.57 33.6q-3.59-.89-7.09-2Q209.72 392.66 206.14 391.35zm-37-251.7c.7-.53 1.4-1 2.11-1.55.24-.16.47-.33.7-.5l2-1.36.92-.62 1.87-1.24c.34-.23.69-.45 1-.67l1.84-1.17 1.1-.67 1.85-1.11 1-.57c1.11-.64 2.22-1.26 3.35-1.87l1.52-.82 1.54-.79 1.62-.82 1.52-.73 1.69-.8 1.49-.68 1.8-.8 1.43-.61c.65-.28 1.32-.55 2-.82l1.29-.52c.87-.34 1.74-.67 2.62-1l.69-.26c1.1-.4 2.22-.79 3.33-1.17l1.05-.34 2.37-.76 1.28-.38 2.18-.64 1.36-.37c.72-.2 1.44-.39 2.17-.57l1.35-.34 2.28-.53 1.26-.29 2.66-.55.89-.17c1.2-.23 2.4-.45 3.6-.65l.7-.1c1-.16 1.94-.31 2.92-.44l1.26-.16c.79-.11 1.59-.21 2.39-.3l1.42-.15 2.29-.22 1.45-.12c.77-.06 1.54-.11 2.32-.15l1.41-.09v35.1a109.53 109.53 0 00-63.88 26.51l-25-25c3.16-2.83 6.44-5.53 9.84-8.07zM293 256a37 37 0 01-.87 8h57.53a93.58 93.58 0 01-21.81 52.53l-40.66-40.66a36.94 36.94 0 01-11.32 11.32l40.67 40.66a93.83 93.83 0 01-34.69 18.53l-8.71-44.48-2.35-12a36.94 36.94 0 01-29.58 0l-2.35 12-8.71 44.48a93.83 93.83 0 01-34.69-18.53l40.67-40.66a36.94 36.94 0 01-11.32-11.32l-40.66 40.66A93.58 93.58 0 01162.34 264h57.53a37.22 37.22 0 010-16H162.34a93.61 93.61 0 0121.81-52.54l40.66 40.67a37 37 0 0111.32-11.32l-40.66-40.66A93.55 93.55 0 01248 162.34v57.53a37.22 37.22 0 0116 0V162.34a93.55 93.55 0 0152.53 21.81l-40.66 40.66a37 37 0 0111.32 11.32l40.66-40.67A93.61 93.61 0 01349.66 248H292.13A37.07 37.07 0 01293 256zm-8.06 106.13a109.9 109.9 0 0042.94-22.93l24 24A144.43 144.43 0 01305.75 391a146 146 0 01-14.28 4.45zM327.88 172.8A109.53 109.53 0 00264 146.29v-35a143.91 143.91 0 0188.38 37zM147.82 159.14l25 25A109.57 109.57 0 00146.29 248h-35.1a143.92 143.92 0 0136.57-88.79zM111.25 264h35a109.53 109.53 0 0026.51 63.88l-24.5 24.5A143.89 143.89 0 01111.25 264zm228 63.88A109.53 109.53 0 00365.71 264h34a143.9 143.9 0 01-36.57 87.86zM365.71 248a109.57 109.57 0 00-26.51-63.88l24.44-24.45A143.9 143.9 0 01399.79 248zM248 46.33A20 20 0 10236 28 19.92 19.92 0 00248 46.33zM403.08 108.93a20 20 0 10-4.48-6.85A20 20 0 00403.08 108.93zM484 236a20 20 0 1020 20A20 20 0 00484 236zM409.92 398.6a19.73 19.73 0 00-6.84 4.48 20 20 0 106.84-4.48zM108.92 403.08a19.73 19.73 0 00-6.84-4.48 20 20 0 106.84 4.48zM28 236a20 20 0 1018.33 12A20 20 0 0028 236zM102.09 113.41a20 20 0 10-21.45-4.48A20 20 0 00102.09 113.41z" fill="#731111" class="color000 svgShape"></path><path d="M275.38,247.94a21.09,21.09,0,0,0-11.31-11.33l-.07,0a21,21,0,0,0-16,0l-.07,0a21.09,21.09,0,0,0-11.31,11.33.09.09,0,0,0,0,.06,20.92,20.92,0,0,0,0,16,.09.09,0,0,0,0,.06,21.09,21.09,0,0,0,7.8,9.45,20.06,20.06,0,0,0,3.51,1.88,21,21,0,0,0,16.14,0,20.06,20.06,0,0,0,3.51-1.88,21.09,21.09,0,0,0,7.8-9.45.09.09,0,0,0,0-.06,20.92,20.92,0,0,0,0-16A.09.09,0,0,0,275.38,247.94Z" fill="#731111" class="color000 svgShape"></path><rect width="240" height="16" x="136" y="488" fill="#731111" class="color000 svgShape"></rect></svg></g></svg>