<svg id="SvgjsSvg1018" width="288" height="288" xmlns="http://www.w3.org/2000/svg" version="1.1" xmlns:xlink="http://www.w3.org/1999/xlink" xmlns:svgjs="http://svgjs.com/svgjs"><defs id="SvgjsDefs1019"></defs><g id="SvgjsG1020"><svg xmlns="http://www.w3.org/2000/svg" width="288" height="288" viewBox="0 0 208 170"><path d="M 82.5,16 C 73.254401,16 65,22.55172 65,31.5 l 0,5.5 -3.330078,0 C 60.462318,32.329826 55.978641,29 51,29 45.920137,29 41.346457,32.463091 40.251953,37.283203 25.57194,39.210419 14,50.965014 14,65.5 l 0,48 c 0,15.91247 13.866619,28.5 30.5,28.5 l 44.314453,0 c 10.07882,12.77569 25.681927,21 43.185547,21 18.95636,0 35.69889,-9.63287 45.5918,-24.26172 C 187.27669,134.0068 194,124.56963 194,113.5 l 0,-48 C 194,49.58757 180.13338,37 163.5,37 l -24.5,0 0,-5.5 C 139,22.55172 130.7456,16 121.5,16 Z m 0,9 39,0 c 5.1584,0 8.5,3.26028 8.5,6.5 l 0,14.5 33.5,0 c 12.17462,0 21.5,8.82042 21.5,19.5 l 0,10.990234 C 181.83227,74.274007 178.0061,72.811651 173.83203,72.345703 163.73733,60.518493 148.7371,53 132,53 c -2.82495,0 -5.60122,0.214458 -8.3125,0.626953 C 121.18279,53.221864 118.61796,53 116,53 100.33384,53 86.407352,60.534441 77.642578,72.169922 l -40.642578,0 c -5.278248,0 -10.126823,1.610533 -14,4.320312 L 23,65.5 C 23,54.82042 32.325381,46 44.5,46 L 74,46 74,31.5 C 74,28.26028 77.341599,25 82.5,25 Z m 11,8 c -3.589851,0 -6.5,2.91015 -6.5,6.5 6e-6,3.58985 2.910153,6.5 6.5,6.5 l 17,0 c 3.58985,0 6.49999,-2.91015 6.5,-6.5 0,-3.58985 -2.91015,-6.5 -6.5,-6.5 z m 13.79688,25.878906 C 89.343962,67.942153 77,86.547753 77,108 c 0,5.24415 0.752677,10.31197 2.128906,15.11914 C 75.245578,116.65921 73,109.09984 73,101 73,80.20476 87.703,62.894518 107.29688,58.878906 Z M 132,60 c 26.55112,0 48,21.44887 48,48 0,26.55117 -21.44888,48 -48,48 -26.55112,0 -48,-21.44883 -48,-48 0,-26.55113 21.44888,-48 48,-48 z m 0,6.5 c -22.89021,0 -41.5,18.60979 -41.5,41.5 0,22.89017 18.60979,41.5 41.5,41.5 22.89021,0 41.5,-18.60983 41.5,-41.5 0,-22.89021 -18.60979,-41.5 -41.5,-41.5 z m 0,5 c 20.188,0 36.5,16.31199 36.5,36.5 0,2.81487 -0.32718,5.54924 -0.92773,8.17969 C 160.31061,104.10303 147.09449,96 132,96 116.90591,96 103.68952,104.10356 96.427734,116.17969 95.827183,113.54924 95.5,110.81487 95.5,108 95.5,87.81199 111.812,71.5 132,71.5 Z" color="#000" enable-background="accumulate" font-family="sans-serif" font-weight="400" overflow="visible" style="line-height:normal;text-indent:0;text-align:start;text-decoration-line:none;text-decoration-style:solid;text-decoration-color:#000;text-transform:none;block-progression:tb;white-space:normal;isolation:auto;mix-blend-mode:normal;solid-color:#000;solid-opacity:1" fill="#767fad" class="color000 svgShape"></path></svg></g></svg>